<svg width="25" height="24" viewBox="0 0 25 24" fill="none" xmlns="http://www.w3.org/2000/svg">
<g id="Rocket/ 24 / Solid">
<path id="Vector" d="M23.1 2.09988C23 1.79988 22.7 1.49988 22.4 1.39988C18.2001 0.299882 13.9 1.59988 11 4.99988L9.90005 6.29988L7.20005 5.69988C5.90005 5.19988 4.50005 5.79988 3.90005 6.99988L1.70005 10.8999C1.50005 11.1999 1.50005 11.4999 1.70005 11.7999C1.80005 12.0999 2.10005 12.2999 2.40005 12.3999L5.50005 13.0999C5.20005 13.8999 5.10005 14.6999 4.90005 15.4999C4.90005 15.7999 5.00005 16.0999 5.20005 16.2999L8.30005 19.3999C8.50005 19.5999 8.70005 19.6999 9.00005 19.6999H9.10005C10 19.5999 10.8 19.4999 11.6 19.1999L12.2 22.1999C12.3 22.4999 12.5 22.7999 12.8 22.8999C12.9 22.9999 13.1 22.9999 13.2 22.9999C13.4 22.9999 13.5 22.9999 13.7 22.8999L17.6 20.6999C18.7001 20.0999 19.3 18.6999 19 17.3999L18.3 14.5999L19.5 13.4999C22.8 10.6999 24.2001 6.19988 23.1 2.09988ZM7.80005 8.79988C7.20005 9.59988 6.60005 10.3999 6.20005 11.1999L4.10005 10.6999L5.60005 7.99988C5.80005 7.59988 6.20005 7.49988 6.70005 7.59988L8.40005 7.99988L7.80005 8.79988ZM16.5 18.8999L13.8 20.3999L13.4 18.3999C14.3 17.9999 15.1 17.3999 15.8 16.7999L16.5 16.0999L16.9 17.7999C17.1 18.2999 16.8 18.7999 16.5 18.8999ZM17.2 8.79988C16.4 8.79988 15.7 8.09988 15.7 7.29988C15.7 6.49988 16.4 5.79988 17.2 5.79988C18 5.79988 18.7001 6.49988 18.7001 7.29988C18.7001 8.09988 18.1 8.79988 17.2 8.79988Z" fill="#E00034"/>
</g>
</svg>
